<?xml version="1.0" encoding="UTF-8" standalone="no"?>
<!DOCTYPE svg PUBLIC "-//W3C//DTD SVG 1.0//EN"
"http://www.w3.org/TR/2001/REC-SVG-20010904/DTD/svg10.dtd">
<!-- Created with Sodipodi ("http://www.sodipodi.com/") -->
<svg
   id="svg602"
   sodipodi:version="0.34"
   xmlns="http://www.w3.org/2000/svg"
   xmlns:sodipodi="http://sodipodi.sourceforge.net/DTD/sodipodi-0.dtd"
   xmlns:xlink="http://www.w3.org/1999/xlink"
   width="210mm"
   height="297mm"
   xml:space="preserve"
   sodipodi:docbase="/home/dp/svn/inglewood/nepenthes/trunk/doc"
   sodipodi:docname="/home/dp/svn/inglewood/nepenthes/trunk/doc/logo-shaded.svg"><defs
   id="defs604"><linearGradient
   id="linearGradient778"><stop
   style="stop-color:#81a86e;stop-opacity:1;"
   offset="0"
   id="stop779" /><stop
   style="stop-color:#171d17;stop-opacity:1;"
   offset="1"
   id="stop780" /></linearGradient><linearGradient
   id="linearGradient735"><stop
   style="stop-color:#b2e07f;stop-opacity:1;"
   offset="0"
   id="stop736" /><stop
   style="stop-color:#326232;stop-opacity:1;"
   offset="1"
   id="stop737" /></linearGradient><linearGradient
   xlink:href="#linearGradient735"
   id="linearGradient738"
   x1="0.77477896"
   y1="9.37351137e-2"
   x2="0.61261261"
   y2="1.98437464" /><radialGradient
   xlink:href="#linearGradient735"
   id="radialGradient772"
   cx="0.51544935"
   cy="0.51562136"
   r="0.72332907"
   fx="0.51544935"
   fy="0.51562136" /><linearGradient
   xlink:href="#linearGradient735"
   id="linearGradient775"
   x1="5.15312366e-2"
   y1="5.46851903e-2"
   x2="1.72164953"
   y2="2.03125" /><linearGradient
   xlink:href="#linearGradient735"
   id="linearGradient776"
   x1="0.44520187"
   y1="0.22655256"
   x2="0.52474731"
   y2="2.04687476"
   gradientTransform="translate(-1.256523e-6,-8.72094e-8)" /><linearGradient
   xlink:href="#linearGradient778"
   id="linearGradient777"
   x1="0.43967852"
   y1="0.19841322"
   x2="1.14785981"
   y2="1.03968322" /><linearGradient
   xlink:href="#linearGradient778"
   id="linearGradient781"
   x1="0.50617725"
   y1="3.84179652e-2"
   x2="0.43191102"
   y2="1.24359" /><linearGradient
   xlink:href="#linearGradient778"
   id="linearGradient782"
   x1="0.53580207"
   y1="0.1873318"
   x2="0.56937534"
   y2="1.34374881" /><radialGradient
   xlink:href="#linearGradient735"
   id="radialGradient783"
   cx="0.49550515"
   cy="0.50778538"
   r="0.68758577"
   fx="0.49550515"
   fy="0.50778538" /><radialGradient
   xlink:href="#linearGradient735"
   id="radialGradient784"
   cx="0.51463354"
   cy="0.52343333"
   r="0.77476025"
   fx="0.51463354"
   fy="0.52343333"
   gradientTransform="translate(-1.256523e-6,-8.72094e-8)" /></defs><sodipodi:namedview
   id="base" /><path
   style="font-size:12;fill:url(#radialGradient772);fill-rule:evenodd;stroke:#729051;stroke-width:0.6284;stroke-opacity:1;stroke-dasharray:none;fill-opacity:1;"
   d="M 93.05076 77.25908 C 92.90346 110.6994 109.2332 134.131 129.29 128.5244 C 159.3505 119.9978 145.6417 77.55388 135.0352 56.04593 C 121.0403 65.32671 110.1392 71.07187 93.05076 77.25908 z "
   id="path717"
   sodipodi:nodetypes="cscc"
   transform="matrix(0.477398,0,0,0.477398,216.2916,63.20966)" /><path
   style="font-size:12;fill:url(#linearGradient777);fill-rule:evenodd;stroke:#729051;stroke-width:0.5;fill-opacity:1;stroke-opacity:1;"
   d="M 108.3513 57.80065 C 98.89956 58.25658 94.70506 61.20008 91.33656 64.87165 C 87.88426 68.89875 88.96416 78.84351 93.76716 77.46694 C 108.7398 72.9688 130.1547 60.29638 134.6469 56.47489 C 138.0016 53.8767 119.7369 57.27277 108.3513 57.80065 z "
   id="path720"
   sodipodi:nodetypes="cssss"
   transform="matrix(0.477398,0,0,0.477398,216.2916,63.20966)" /><path
   style="font-size:12;fill:#aedc9b;fill-rule:evenodd;stroke:#729051;stroke-width:0.5;fill-opacity:1;"
   d="M 65.25896 85.99674 C 57.90166 91.57665 64.14636 95.69866 69.92806 93.70205 C 73.41116 92.4992 75.05466 88.21445 80.14506 84.85279 C 84.92306 82.11612 93.77286 79.05262 93.54326 77.79217 C 93.08176 75.57026 73.17706 79.72507 65.25896 85.99674 z "
   id="path722"
   sodipodi:nodetypes="cssss"
   transform="matrix(0.477398,0,0,0.477398,216.2916,63.20966)" /><path
   style="font-size:12;fill:url(#linearGradient781);fill-rule:evenodd;stroke:#81a35c;stroke-width:0.494369;fill-opacity:1;"
   d="M 63.81527 153.6803 C 76.34077 154.0971 101.2897 159.7722 102.3084 154.6179 C 103.1369 150.6811 97.77187 146.3242 90.39387 145.2428 C 82.27717 144.0018 72.67477 150.7637 63.81527 153.6803 z "
   id="path732"
   sodipodi:nodetypes="cssc"
   transform="matrix(0.477398,0,0,0.477398,267.2517,26.83804)" /><path
   style="font-size:12;fill:url(#radialGradient783);fill-rule:evenodd;stroke:#729051;stroke-width:0.5;fill-opacity:1;"
   d="M 62.95367 153.7875 C 52.12027 173.0584 37.50267 222.0927 79.20377 220.9752 C 112.0905 220.0873 117.2247 177.3292 101.3913 155.6625 C 83.99537 156.4959 86.91207 151.3917 62.95367 153.7875 z "
   id="path730"
   sodipodi:nodetypes="cscc"
   transform="matrix(0.477398,0,0,0.477398,267.2517,26.83804)" /><path
   style="font-size:12;fill:#acdc99;fill-rule:evenodd;stroke:#729051;stroke-width:0.5;fill-opacity:1;"
   d="M 100.9907 155.9398 C 100.7656 157.7629 128.9957 162.0947 136.2185 161.4697 C 138.7558 161.2501 133.9573 156.0823 130.7772 155.2251 C 122.978 153.1229 100.998 154.0912 100.9907 155.9398 z "
   id="path734"
   sodipodi:nodetypes="csss"
   transform="matrix(0.477398,0,0,0.477398,267.2517,26.83804)" /><path
   style="font-size:12;fill:url(#linearGradient782);fill-opacity:0.9966;fill-rule:evenodd;stroke:#729051;stroke-width:0.375;"
   d="M 186.3801 31.1585 C 183.4885 34.19279 193.9206 46.37552 204.9171 48.66196 C 211.75 43.68288 220.0835 33.46226 216.014 30.47303 C 211.8212 27.32507 207.9946 32.86976 202.0425 33.80116 C 195.5072 34.46278 190.4262 27.2921 186.3801 31.1585 z "
   id="path726"
   sodipodi:nodetypes="ccsss"
   transform="matrix(0.477398,0,0,0.477398,192.5179,95.11186)" /><path
   style="font-size:12;fill:#4b613f;fill-rule:evenodd;"
   d="M 133.4159 73.06187 C 132.5467 74.52466 137.2029 81.49945 138.9874 81.49945 C 140.7315 81.49945 144.9571 74.50856 144.0018 73.06187 C 143.0999 71.69606 134.2182 71.71216 133.4159 73.06187 z "
   id="path752"
   sodipodi:nodetypes="csss"
   transform="matrix(0.70174,0,0,0.70174,191.796,63.6617)" /><path
   style="font-size:12;fill:url(#radialGradient784);fill-rule:evenodd;stroke:#729051;stroke-width:0.625;fill-opacity:1;"
   d="M 185.8831 32.39318 C 181.7785 47.68195 181.7967 77.89887 200.8831 77.39327 C 223.3745 76.78937 221.4481 39.60547 216.5081 31.14318 C 212.9064 37.20961 207.621 43.12247 202.4455 45.83068 C 196.6835 43.74747 192.9243 39.97359 185.8831 32.39318 z "
   id="path724"
   sodipodi:nodetypes="csccc"
   transform="matrix(0.477398,0,0,0.477398,192.5179,95.11186)" /><path
   style="font-size:12;fill:#a0dc88;fill-rule:evenodd;stroke:#729051;stroke-width:0.375;fill-opacity:1;"
   d="M 202.0793 45.40826 C 200.7425 45.32159 195.7935 74.62427 202.7043 75.09577 C 207.7894 75.46404 203.766 45.49043 202.0793 45.40826 z "
   id="path728"
   sodipodi:nodetypes="css"
   transform="matrix(0.477398,0,0,0.477398,192.5179,95.11186)" /><text
   style="fill:black;stroke:none;font-family:URW Chancery L;font-style:italic;font-weight:normal;font-size:26;fill-opacity:1;stroke-opacity:1;stroke-width:1pt;stroke-linejoin:miter;stroke-linecap:butt;text-anchor:start;writing-mode:lr;"
   x="258.978268"
   y="172.012741"
   id="text653"
   sodipodi:linespacing="200%"
   xml:space="preserve"><tspan
   x="258.978271"
   y="172.012741"
   sodipodi:role="line"
   id="tspan688">- finest collection -</tspan></text><text
   style="fill:black;stroke:none;font-family:URW Chancery L;font-style:italic;font-weight:normal;font-size:64;fill-opacity:1;stroke-opacity:1;stroke-width:1pt;stroke-linejoin:miter;stroke-linecap:butt;text-anchor:middle;writing-mode:lr;"
   x="293.449753"
   y="156.102997"
   id="text690"
   sodipodi:linespacing="100%"
   xml:space="preserve"><tspan
   x="293.449768"
   y="156.102997"
   sodipodi:role="line"
   id="tspan711">nepenthes</tspan></text></svg>
